<svg xmlns="http://www.w3.org/2000/svg" version="1.1" id="Lager_1" viewBox="0 0 205.5 205.5" sodipodi:docname="j26_favicon_dark.svg" inkscape:version="1.4 (86a8ad7, 2024-10-11)" xmlns:inkscape="http://www.inkscape.org/namespaces/inkscape" xmlns:sodipodi="http://sodipodi.sourceforge.net/DTD/sodipodi-0.dtd" xmlns:svg="http://www.w3.org/2000/svg" width="205.5" height="205.5"><sodipodi:namedview id="namedview13" pagecolor="#ffffff" bordercolor="#000000" borderopacity="0.25" inkscape:showpageshadow="2" inkscape:pageopacity="0.0" inkscape:pagecheckerboard="0" inkscape:deskcolor="#d1d1d1" inkscape:zoom="4.5109489" inkscape:cx="64.509709" inkscape:cy="129.13026" inkscape:window-width="1920" inkscape:window-height="1009" inkscape:window-x="1912" inkscape:window-y="352" inkscape:window-maximized="1" inkscape:current-layer="Lager_1"></sodipodi:namedview><defs id="defs1">
    <style id="style1">
      .st0 {
        fill: none;
      }

      .st1 {
        fill: #f6a842;
      }

      .st2 {
        fill: #f1a9b3;
      }

      .st3 {
        fill: #fff;
      }

      .st4 {
        fill: #1d3f5d;
      }
    </style>
  </defs><rect class="st4" x="2.8" y="2.8" width="200" height="200" rx="100" ry="100" id="rect1"></rect><path class="st3" d="M100.6,107.9c0-1.8-1.4-2.6-2.8-2.6l-23.2,1.1,19.4-30c2.9-4.7,4.7-9.8,4.4-15.7l-.4-8.4c-.6-13.1-11.8-23.3-25.1-22.7-13.3.6-23.3,11.8-22.7,25l.2,4.3c.2,1.8,1.2,2.7,2.8,2.6l11.3-.5c1.8,0,2.8-1.3,2.7-2.8l-.2-4.3c-.2-3.7,2.9-7.1,6.6-7.3,3.9-.2,7.1,2.9,7.3,6.6l.4,8.4c0,.9,0,1.8-.3,2.3l-20.9,33.3c1.3,2.2,2.7,5,2.3,6.1-.1.3-.2.7-.3,1.1-.2,1-.5,2.2-1.4,3.1,1.5,1.6,4.4,5,4.1,6.8-.3,1.8-.6,3.7-1.8,4.7.5.8,1,2.3.4,4.2,1.4.1,3,.3,4.5.4l30.5-1.5c1.5,0,2.6-1.9,2.6-3.1l-.5-11.2Z" id="path1"></path><path class="st3" d="M30.5,113.6c-.2,0-1.3.4-2.8,2.3-1.1,1.4.5,3.8,3,7,.4.6.8,1.1,1.2,1.7.4.6.8,1.2,1.3,1.9,2.7,3.8,6.8,9.5,8.9,11.6,1.6,1.6,1.9,4.3,1.7,8.8h3.2s11.2,0,15.6,0c0-.6.2-1.7.4-3.8.4-3.9,1.1-9.7,1.1-11.6s-.7-4.6-1.3-6.8c-.4-.6-.7-1.1-.9-1.4,0,0,0,.2,0,.2,0,.2,0,.4,0,.6-.6.8-1.6,1.3-2.5,1.5,0,.6-.3,1.4-1.3,2.1-.7.5-1.6.7-2.6.7-2.4,0-5.5-1.2-8.5-2.4l-.4-.2c-.9-.3-1.7-.7-2.5-1-2.5-1-4.4-1.8-6-1.8-2.7,0-7.8-2.8-8.3-3.1-.7-.4-.9-1.2-.5-1.8.4-.7,1.2-.9,1.8-.5,1.9,1.1,5.5,2.8,7,2.8,2.1,0,4.4,1,7.1,2.1.8.3,1.6.7,2.4,1l.4.2c2.7,1.1,7.3,2.9,8.5,2,.2-.1.2-.2.2-.2,0,0,0-.2-.2-.3-1.4-.7-3.7-2.2-8-5-3.5-2.3-7.2-4.6-8.5-5.2-2.6-1.2-6.8-.7-6.8-.7-.7,0-1.4-.4-1.5-1.2,0-.7.4-1.4,1.2-1.5.2,0,5-.6,8.2.9,1.5.7,5,3,8.8,5.4,2.4,1.6,5.5,3.6,7.3,4.6.2,0,.5.1.7.3,0,0,.2.1.3.2.1,0,.2.1.3.1.3,0,1.2-.3,1.4-.8.2-.4-.2-1-.6-1.5-2.4-2.6-3.7-3.3-3.7-3.3-.2,0-.3-.2-.4-.3-1.6-1-3-2.2-4-3-.2-.2-.4-.3-.5-.4-.3-.3-.9-.8-1.6-1.4-1.3-1.2-5.4-5.1-6.6-5.1-2,0-5.3.4-5.3.4-.5,0-.9-.2-1.2-.5-.5.6-1.4,1.2-2.8,1.5-1.3.3-1.4,2.9-1.4,3.6,0,.4,0,.7-.3,1-.3.3-.5.4-.9.4Z" id="path2"></path><path class="st3" d="M63.1,115.8s0,0,0,0c0,0,0,0,0,0,0,0,0,0,0,0Z" id="path3"></path><path class="st3" d="M48.9,98.2c.9.8,5,4.6,8.4,7.7.7-.1,1.7-.6,1.9-1.7.1-.7-1.2-3.5-5.3-7.8-.3-.3-.5-.6-.8-.9-2.4-2.6-5.4-5.8-8.9-5.2-.5.1-.9.3-1.1.7-.7,1.2-.3,3.6.3,5.4,2.9-.8,4.7.6,5.5,1.7Z" id="path4"></path><path class="st3" d="M36.9,104.7s0,.1,0,.2c.5,0,3.5-.4,5.6-.4s4.4,2.1,8.4,5.9c.6.6,1.2,1.1,1.4,1.3.1.1.3.3.6.5,1,.9,3,2.5,4.9,3.6,2.1,1.2,3.2,1.3,3.6.9.7-.7.7-1.2.7-1.3,0-1-1.2-2.3-2.1-3.1h-.1c-1.4-1.5-12.9-11.9-13-12-.1-.1-.2-.2-.3-.4-.1-.2-1-1.4-3.3-.3-.9.9-3.4,3-5.1,3.2-.4,0-1,1-1.4,2.1Z" id="path5"></path><path class="st1" d="M38.4,163.7c5,.4,23,0,28.4-.2.3,0,.6-.3.6-.6,0-2-.1-6.5-.1-6.5,0-2.5-.2-4.8-.5-6.1,0-.3-.4-.6-.7-.6-3.9-.2-23-.3-26-.3-.2,0-.4.2-.4.4,0,.8-.2,2-.5,3.7-.3,2.8-.9,7.5-1.1,9.7,0,.2.1.4.4.4Z" id="path6"></path><path class="st3" d="m 144.2,133.3 c 0.3,-0.6 0.6,-3.9 1.2,-4.8 0.7,-1.1 3.6,-5.5 3.6,-6.1 0,-0.6 -2.5,0 -3.7,-1.9 -1.2,-1.9 -0.7,-1.5 -0.7,-2.4 -0.2,-4.6 6.6,-8.6 8.3,-10.3 1.3,-1.4 3,-5 5.3,-7.1 l 0.4,-2.9 c 0,-13.3 -10.6,-24 -23.9,-24 -6.42244,0 -5.83443,0.02974 -7,0.04394 V 66.9 c 0,-3.7 3.1,-7 7,-7 9.2,0 5.5,9.9 9.9,9.9 H 156 c 1.7,0 2.6,-1.3 2.6,-3 0,-13.2 -10.6,-23.9 -23.9,-23.9 -13.3,0 -24,10.7 -24,23.9 V 114 c 0,13.3 10.7,24 24,24 0.56065,0 2.05061,-0.002 2.05061,-0.002 L 136.8,137.9 c 2.4,-3.9 6.9,-3.6 7.4,-4.6 z M 127.7,114 V 97.2 c 0.4,-3.7 3.2,-6.5 7,-6.5 3.8,0 7,3.1 7,7 V 114 c 0,3.9 -3.1,7 -7,7 -3.9,0 -7,-3.1 -7,-7 z" id="path7" sodipodi:nodetypes="scssccccscsssssssssccsscsssss"></path><path class="st3" d="M148.9,118.6c2.1-.6,4.3-3.1,5.7-4.7.5-.5.9-1,1.2-1.3,0,0,0,0,0,0,0,0,0,0,0,0,1.5-1.4,3.2-2.8,5.4-2.9,1.2,0,2.5.2,3.4.4.4-4.1-.5-5.4-1.4-5.8-1.2-.5-2-.8-2.7-.8-1.1,0-2,.8-3.7,2.9-1.4,1.8-3.4,3.6-5.3,5.3-1.6,1.4-4.3,3.8-4.3,4.6s0,2.2.3,2.4c0,0,.3.1,1.3-.1Z" id="path8"></path><path class="st2" d="M166.5,169.2c-.2-2.5-.9-8.1-1.3-10.1-3.3,0-15.6-.2-24-.2,0,0-.1,0-.2,0-1.6-.2-3.2-.4-4.2-.4.2,2.6,1,9,1.5,11.2,4.2.1,23.4,0,28.2-.4Z" id="path9"></path><path class="st3" d="M141.4,156.2c10.2,0,16.2.1,19.8.2,0-1,0-2,0-3-.3.2-.6.4-.9.4s-.7-.1-1-.4c-.5-.5-.5-1.4,0-1.9.2-.2,3.7-3.7,6.4-5,1.1-.5,2.7-3,4-4.9,1.1-1.7,2.2-3.4,3.3-4.4.2-.2.5-.5.8-.7,1.9-1.7,4.5-4.1,4.5-5.8s-1.4-3.3-2-3.8c-.1,0-.3,0-.4-.2-.7-.5-.7-1.3-.6-1.6,0-1,.3-2.9-2.4-4.1-.7-.3-1-1.1-.7-1.7,0,0,.9-2.5-.3-3.4-1.2-.9-3.5-1.7-4.8-2.2-.8-.3-1.3-.5-1.7-.7,0,0,0,0-.1,0,0,0-2.1-.6-3.7-.6-1.3,0-2.4,1-3.6,2.1-.8,1.1-6.7,9.6-8.6,12.5-2.2,3.2-2.8,4.5-2.4,5.7,0,.2,0,.2.2.2.5.2,1.6,0,2.5-.6.7-.5,3.4-4.2,5.2-6.7,1.9-2.6,3.6-5,4.6-6,2.5-2.6,7.7-2.3,8.3-2.2.7,0,1.3.7,1.2,1.5,0,.7-.7,1.3-1.5,1.2-1.2,0-4.8,0-6.2,1.4-.8.9-2.6,3.4-4.4,5.8-2.7,3.7-4.2,5.8-5.2,6.8,0,0-.1.2-.2.3,0,0-1.4,1.7-2.6,2.7-.3.2-.6,1-.4,1.4,0,0,.1.4.8.4,2.1.1,3.8-1.7,5.3-3.3.1-.2.3-.3.4-.5,0,0,9.1-9.1,11.2-9.8,1.6-.5,6.2-.7,6.7-.7.7,0,1.4.6,1.4,1.3,0,.7-.6,1.4-1.3,1.4-1.8,0-5.1.3-6,.6-1.1.5-7.7,6.6-10.1,9.1-.1.1-.3.3-.4.4-.8.9-1.8,1.9-2.9,2.7.1.2.3.4.6.5.9.3,2.3-.4,4-1.7,3.7-3.1,8.8-6.3,11.5-6,1.3.1,3.3-.4,4-.7.7-.3,1.5.1,1.7.8.3.7-.1,1.5-.8,1.7-.3.1-3,1-5.2.8-1.1-.1-5.1,1.7-9.5,5.4-2.3,1.9-4,2.4-5.3,2.4s-.9,0-1.3-.2c-.9-.3-1.7-1-2.2-1.9-.5.2-1.1.2-1.7.2s-.3,0-.4,0c-1.6-.1-2.8-.9-3.2-2.3-.4-1.3,0-2.7.6-3.6-.2,0-.4,0-.6-.2,0,0-.2,0-.2-.1-1.4.7-2.9,1.3-4.5,1.8-1,2.4-1.9,4.7-2.1,5.9-.3,1.9,1,8.6,2.1,13.1,0,0,0,0,.1,0Z" id="path10"></path><g id="g13">
    <path class="st0" d="M102.8,2.8h0C47.5,2.8,2.8,47.5,2.8,102.8h0c0,31,14.1,58.6,36.2,77,.2-4.8.5-9.5.7-11.7,0-.8.7-1.4,1.5-1.4l24.5-.5c.9,0,1.7.5,1.9,1.4,1.1,3.6,4,13.3,4.6,21.8.3,4.2-.4,6.6-1.9,8,10.2,3.5,21.1,5.4,32.5,5.4h0c11.9,0,23.3-2.1,33.9-5.9-.6-3.9,1.5-17.4,2.3-22.5.2-1.2,1.2-2,2.3-2.1,6.1-.2,24.1-.8,26.2-.5.7.1,1.8,1.9,3,4.5,19.8-18.3,32.2-44.5,32.2-73.5h0c0-55.2-44.8-100-100-100Z" id="path11"></path>
    <path class="st1" d="M72.2,189.4c-.6-8.6-3.4-18.3-4.6-21.8-.3-.8-1-1.4-1.9-1.4l-24.5.5c-.8,0-1.4.6-1.5,1.4-.2,2.2-.5,6.9-.7,11.7,9.2,7.6,19.8,13.6,31.3,17.6,1.6-1.4,2.2-3.8,1.9-8Z" id="path12"></path>
    <path class="st2" d="M167.5,171.8c-2.2-.4-20.2.3-26.2.5-1.2,0-2.1.9-2.3,2.1-.8,5.1-2.9,18.6-2.3,22.5,12.7-4.6,24.2-11.6,33.9-20.6-1.2-2.6-2.3-4.4-3-4.5Z" id="path13"></path>
  </g></svg>